<svg width="40" height="40" viewBox="0 0 40 40" fill="none" xmlns="http://www.w3.org/2000/svg"><g clip-path="url(#clip0_5007_63860)"><path d="M40.0006 11.7169C40.0011 9.39968 39.3144 7.13433 38.0272 5.20744C36.74 3.28055 34.9103 1.7787 32.7695 0.891852C30.6287 0.00500778 28.2729 -0.22698 26.0002 0.225234C23.7275 0.677448 21.64 1.79355 20.0017 3.43235C17.8045 1.235 14.8243 0.000485925 11.7169 0.000387478C8.6095 0.000289031 5.62931 1.23461 3.43196 3.43182C1.23461 5.62903 9.84992e-05 8.60914 5.89402e-09 11.7166C-9.84874e-05 14.824 1.23423 17.8042 3.43143 20.0015C1.25953 22.2041 0.0467682 25.1762 0.057708 28.2695C0.0686478 31.3628 1.3024 34.3262 3.48983 36.5133C5.67726 38.7005 8.64086 39.9339 11.7341 39.9444C14.8274 39.955 17.7994 38.7418 20.0017 36.5697C22.1987 38.7669 25.1787 40.0013 28.2859 40.0014C31.3931 40.0015 34.3731 38.7672 36.5703 36.5702C38.7675 34.3731 40.002 31.3932 40.0021 28.286C40.0022 25.1787 38.7679 22.1987 36.5708 20.0015C37.6598 18.9144 38.5233 17.623 39.1119 16.2013C39.7005 14.7796 40.0025 13.2556 40.0006 11.7169Z" fill="#174822"></path><path d="M20.1794 11.7178C20.1195 11.7178 20.0586 11.7178 19.9988 11.7178C19.7887 11.7178 19.584 11.7252 19.3823 11.7388C19.375 11.7388 19.3697 11.7388 19.3624 11.7388C17.5964 11.8755 15.9208 12.5743 14.581 13.7329C13.2413 14.8915 12.3081 16.4488 11.9181 18.1766C11.5282 19.9043 11.7021 21.7116 12.4144 23.3332C13.1267 24.9549 14.3398 26.3057 15.8759 27.1875C15.3654 26.4577 15.064 25.6022 15.0042 24.7136C14.9444 23.8249 15.1286 22.9368 15.5368 22.1452C15.945 21.3536 16.5617 20.6885 17.3203 20.2219C18.0789 19.7552 18.9506 19.5047 19.8412 19.4973C19.8559 19.4963 19.8707 19.4963 19.8853 19.4973C19.9004 19.4963 19.9155 19.4963 19.9305 19.4973C20.934 19.4852 21.8941 19.0863 22.6107 18.3837C23.3274 17.6812 23.7453 16.7292 23.7774 15.7261C23.8094 14.7231 23.4532 13.7463 22.783 12.9994C22.1127 12.2525 21.18 11.7931 20.1794 11.7168V11.7178ZM19.8853 16.6451C19.6792 16.6449 19.4777 16.5836 19.3064 16.4689C19.1351 16.3543 19.0016 16.1914 18.9228 16.0009C18.844 15.8104 18.8234 15.6008 18.8637 15.3986C18.904 15.1965 19.0033 15.0107 19.149 14.865C19.2948 14.7192 19.4805 14.6199 19.6827 14.5796C19.8849 14.5394 20.0945 14.5599 20.285 14.6387C20.4755 14.7175 20.6383 14.851 20.753 15.0223C20.8677 15.1937 20.929 15.3951 20.9292 15.6013C20.9293 15.7384 20.9024 15.8742 20.85 16.0009C20.7976 16.1276 20.7207 16.2427 20.6238 16.3397C20.5268 16.4367 20.4117 16.5135 20.285 16.5659C20.1583 16.6184 20.0225 16.6453 19.8853 16.6451Z" fill="#D2AB67"></path><path d="M23.7506 12.6122C24.31 13.3347 24.6556 14.1997 24.748 15.1088C24.8405 16.0178 24.6761 16.9346 24.2736 17.755C23.8711 18.5753 23.2466 19.2663 22.471 19.7495C21.6954 20.2327 20.7998 20.4886 19.8861 20.4883C18.8746 20.4873 17.9024 20.8798 17.175 21.5826C16.4477 22.2855 16.0222 23.2437 15.9885 24.2546C15.9548 25.2655 16.3156 26.2499 16.9945 26.9996C17.6735 27.7493 18.6174 28.2056 19.6267 28.272C19.6382 28.2736 19.6498 28.2736 19.6613 28.272C19.7033 28.272 19.7464 28.272 19.7873 28.272C19.8283 28.272 19.8546 28.272 19.8861 28.272H19.9995C21.8612 28.2715 23.6685 27.644 25.1299 26.4907C26.5914 25.3374 27.6219 23.7256 28.0552 21.915C28.4886 20.1044 28.2995 18.2007 27.5186 16.5107C26.7376 14.8207 25.4103 13.443 23.7506 12.5996V12.6122ZM19.8861 25.4187C19.6799 25.4185 19.4784 25.3572 19.307 25.2425C19.1357 25.1278 19.0022 24.9648 18.9234 24.7743C18.8446 24.5837 18.8241 24.3741 18.8645 24.1719C18.9048 23.9696 19.0042 23.7839 19.1501 23.6382C19.296 23.4925 19.4818 23.3933 19.6841 23.3531C19.8863 23.313 20.0959 23.3337 20.2864 23.4126C20.4769 23.4916 20.6397 23.6252 20.7542 23.7967C20.8688 23.9682 20.9299 24.1697 20.9299 24.3759C20.9302 24.513 20.9034 24.6489 20.851 24.7756C20.7986 24.9023 20.7217 25.0174 20.6247 25.1143C20.5277 25.2112 20.4125 25.288 20.2858 25.3402C20.159 25.3925 20.0232 25.4191 19.8861 25.4187Z" fill="#D2AB67"></path><path d="M8.28516 20.0031L8.29038 20V20.0073L8.28516 20.0031Z" stroke="#A7A9AC" stroke-width="1.13" stroke-linejoin="round"></path><path d="M20.0003 8.28516L20.0055 8.29038H20.0003H19.9961L20.0003 8.28516Z" stroke="#A7A9AC" stroke-width="1.13" stroke-linejoin="round"></path><path d="M20.0003 31.7109H20.0055L20.0003 31.7162L19.9961 31.7109H20.0003Z" stroke="#A7A9AC" stroke-width="1.13" stroke-linejoin="round"></path><path d="M31.7161 20.0031L31.7109 20.0073V20L31.7161 20.0031Z" stroke="#A7A9AC" stroke-width="1.13" stroke-linejoin="round"></path><path d="M20.0052 31.7109L20 31.7162" stroke="#A7A9AC" stroke-width="1.13" stroke-linejoin="round"></path><path d="M31.7161 20.002L31.7109 20.0061" stroke="#A7A9AC" stroke-width="1.13" stroke-linejoin="round"></path><path d="M8.28516 20.0033L8.29038 20.0001V19.998" stroke="#A7A9AC" stroke-width="1.13" stroke-linejoin="round"></path><path d="M20.0003 8.28516L19.9961 8.29038" stroke="#A7A9AC" stroke-width="1.13" stroke-linejoin="round"></path><path d="M20.0003 31.7162L19.9961 31.7109" stroke="#A7A9AC" stroke-width="1.13" stroke-linejoin="round"></path><path d="M8.29038 20.0061L8.28516 20.002" stroke="#A7A9AC" stroke-width="1.13" stroke-linejoin="round"></path><path d="M24.2885 36.0057C21.4786 36.7562 18.5209 36.7562 15.7109 36.0057L20.0008 31.7148L24.2885 36.0057Z" fill="white"></path><path d="M8.28525 20.0027L3.99646 24.2905C3.24597 21.4805 3.24597 18.5228 3.99646 15.7129L8.28525 20.0027Z" fill="white"></path><path d="M24.2917 3.99648L20.0008 8.28527L15.7109 3.99648C18.5219 3.24596 21.4807 3.24596 24.2917 3.99648Z" fill="white"></path><path d="M36.5686 20.0027C36.5704 21.4504 36.3815 22.8921 36.0068 24.2905L31.7148 20.0027L36.0047 15.7129C36.3794 17.112 36.5682 18.5543 36.5665 20.0027" fill="white"></path><path d="M31.7161 20.0033L31.7109 20.0001V19.998" stroke="#A7A9AC" stroke-width="1.13" stroke-linejoin="round"></path><path d="M20.0052 8.28933L20 8.28516" stroke="#A7A9AC" stroke-width="1.13" stroke-linejoin="round"></path></g><defs><clipPath id="clip0_5007_63860"><rect width="40" height="40" fill="white"></rect></clipPath></defs></svg>